<?xml version="1.0" encoding="utf-8"?>
<!-- Generator: Adobe Illustrator 22.0.1, SVG Export Plug-In . SVG Version: 6.00 Build 0)  -->
<svg version="1.1" xmlns="http://www.w3.org/2000/svg" xmlns:xlink="http://www.w3.org/1999/xlink" x="0px" y="0px"
	 viewBox="0 0 1224 792" style="enable-background:new 0 0 1224 792;" xml:space="preserve">
<style type="text/css">
	.st0{fill:#BFBFBF;stroke:#000000;stroke-miterlimit:10;}
	.st1{fill:#DDDDDD;stroke:#000000;stroke-miterlimit:10;}
	.st2{fill:none;stroke:#000000;stroke-linecap:round;stroke-linejoin:round;}
	.st3{fill:#ABDFE9;stroke:#000000;stroke-linecap:round;stroke-linejoin:round;}
	.st4{fill:#D77843;stroke:#000000;stroke-miterlimit:10;}
	.st5{fill:#A57FB9;stroke:#000000;stroke-miterlimit:10;}
	.st6{fill:#E03C3C;stroke:#000000;stroke-miterlimit:10;}
	.st7{fill:#3CA7DE;stroke:#000000;stroke-miterlimit:10;}
	.st8{fill:#FFFFFF;stroke:#000000;stroke-miterlimit:10;}
	.st9{fill:#EDECE4;stroke:#000000;stroke-miterlimit:10;}
	.st10{fill:#FFFFFF;}
	.st11{font-family:'PTSans-Regular';}
	.st12{font-size:24px;}
</style>
<g id="Layer_1">
	<polygon class="st0" points="999.4,597 919.8,649.8 152,649.8 219.4,597 152,544.2 393.7,544.2 393.7,259.5 393.7,259.5 
		393.7,259.3 263,259.3 201.1,211.4 263,163.5 920.2,163.5 857.4,211.6 920.2,259.7 495.3,259.7 495.3,544.2 919.8,544.2 	"/>
	<path class="st1" d="M1171,463.8h-114.5c-6.6,0-12-5.4-12-12v-99.8c0-6.6,5.4-12,12-12H1171c6.6,0,12,5.4,12,12v99.8
		C1183,458.4,1177.6,463.8,1171,463.8z"/>
	<g>
		<path class="st3" d="M1122,211.4v112.9c0,3.7-3,6.7-6.7,6.7h-0.9c-3.7,0-6.7-3-6.7-6.7V219h-100.5c-0.5,0-1.1-0.1-1.5-0.2h-85.4
			v5.9l-40.3-13.1l40.3-13.1v6.2h86.2c0.2,0,0.5,0,0.7,0h103.1c0.7,0,1.4,0.1,2,0.3c0.6-0.2,1.3-0.3,2-0.3h0.9
			C1118.9,204.6,1122,207.7,1122,211.4z"/>
	</g>
	<g>
		<line class="st3" x1="201.1" y1="597" x2="160.8" y2="610.1"/>
		<path class="st3" d="M160.8,610.1v-5.9H71c-3.9,0-7.1-3.2-7.1-7c0-1.9,0.8-3.7,2.1-5c1.3-1.3,3-2.1,5-2.1h89.8v-6.2l40.3,13.1"/>
	</g>
	<path class="st0" d="M393.6,393.8c0,0,48.2-36.5,101.5,0"/>
	<path class="st0" d="M283.4,544.2c0,0-45.5,47.2,0,105.6"/>
	<rect x="260.3" y="119" class="st4" width="28.1" height="581.7"/>
	<path class="st5" d="M366.5,421.1v-50.8c0-6.6,5.4-12,12-12h132c6.6,0,12,5.4,12,12v50.8c0,6.6-5.4,12-12,12h-132
		C371.9,433.1,366.5,427.7,366.5,421.1z"/>
	<path class="st6" d="M637.8,688.3L637.8,688.3c-18.1,0-32.8-14.8-32.8-32.8v-127c0-18.1,14.8-32.8,32.8-32.8h0
		c18.1,0,32.8,14.8,32.8,32.8v127C670.6,673.5,655.8,688.3,637.8,688.3z"/>
	<path class="st7" d="M545.2,688.3L545.2,688.3c-19.9,0-36.2-16.3-36.2-36.2V531.8c0-19.9,16.3-36.2,36.2-36.2h0
		c19.9,0,36.2,16.3,36.2,36.2v120.2C581.4,672,565.1,688.3,545.2,688.3z"/>
	<g>
		<path class="st3" d="M87.2,224.7v-5.9H177c3.9,0,7.1-3.2,7.1-7c0-1.9-0.8-3.7-2.1-5c-1.3-1.3-3-2.1-5-2.1H87.2v-6.2l-40.3,13.1"/>
		<line class="st2" x1="46.9" y1="211.6" x2="87.2" y2="224.7"/>
	</g>
	<rect x="260.3" y="136.6" class="st9" width="28.1" height="3.1"/>
	<rect x="260.3" y="154.1" class="st9" width="28.1" height="3.1"/>
	<rect x="260.3" y="171.7" class="st9" width="28.1" height="3.1"/>
	<rect x="260.3" y="189.3" class="st9" width="28.1" height="3.1"/>
	<rect x="259.9" y="206.8" class="st9" width="28.1" height="3.1"/>
	<rect x="259.9" y="224.4" class="st9" width="28.1" height="3.1"/>
	<rect x="259.9" y="241.9" class="st9" width="28.1" height="3.1"/>
	<rect x="259.9" y="259.5" class="st9" width="28.1" height="3.1"/>
	<rect x="259.9" y="276.8" class="st9" width="28.1" height="3.1"/>
	<polygon class="st9" points="275.5,140 275.5,154.4 288,154.4 288,157.5 259.9,157.5 259.9,154.4 272.3,154.4 272.3,140 259.9,140 
		259.9,136.8 288,136.8 288,140 	"/>
	<polygon class="st9" points="276.5,175 276.5,189.4 289,189.4 289,192.5 260.9,192.5 260.9,189.4 273.3,189.4 273.3,175 260.9,175 
		260.9,171.8 289,171.8 289,175 	"/>
	<polygon class="st9" points="276.1,209.5 276.1,223.9 288.5,223.9 288.5,227.1 260.4,227.1 260.4,223.9 272.9,223.9 272.9,209.5 
		260.4,209.5 260.4,206.4 288.5,206.4 288.5,209.5 	"/>
	<polygon class="st9" points="275.5,245 275.5,259.4 288,259.4 288,262.5 259.9,262.5 259.9,259.4 272.3,259.4 272.3,245 259.9,245 
		259.9,241.8 288,241.8 288,245 	"/>
	<polygon class="st9" points="276.1,280.4 276.1,294.8 288.5,294.8 288.5,298 260.4,298 260.4,294.8 272.9,294.8 272.9,280.4 
		260.4,280.4 260.4,277.3 288.5,277.3 288.5,280.4 	"/>
	<polygon class="st9" points="276.1,315.5 276.1,329.9 288.5,329.9 288.5,333.1 260.4,333.1 260.4,329.9 272.9,329.9 272.9,315.5 
		260.4,315.5 260.4,312.4 288.5,312.4 288.5,315.5 	"/>
	<polygon class="st9" points="276.6,350.7 276.6,365.1 289.1,365.1 289.1,368.2 261,368.2 261,365.1 273.5,365.1 273.5,350.7 
		261,350.7 261,347.5 289.1,347.5 289.1,350.7 	"/>
	<polygon class="st9" points="275.6,386 275.6,400.5 288.1,400.5 288.1,403.6 260,403.6 260,400.5 272.5,400.5 272.5,386 260,386 
		260,382.9 288.1,382.9 288.1,386 	"/>
	<polygon class="st9" points="276.6,421 276.6,435.5 289.1,435.5 289.1,438.6 261,438.6 261,435.5 273.5,435.5 273.5,421 261,421 
		261,417.9 289.1,417.9 289.1,421 	"/>
	<polygon class="st9" points="276.2,455.6 276.2,470 288.7,470 288.7,473.2 260.6,473.2 260.6,470 273.1,470 273.1,455.6 
		260.6,455.6 260.6,452.5 288.7,452.5 288.7,455.6 	"/>
	<polygon class="st9" points="275.8,490.2 275.8,504.6 288.3,504.6 288.3,507.7 260.2,507.7 260.2,504.6 272.7,504.6 272.7,490.2 
		260.2,490.2 260.2,487 288.3,487 288.3,490.2 	"/>
	<polygon class="st9" points="275.8,525.3 275.8,539.7 288.3,539.7 288.3,542.9 260.2,542.9 260.2,539.7 272.7,539.7 272.7,525.3 
		260.2,525.3 260.2,522.2 288.3,522.2 288.3,525.3 	"/>
	<polygon class="st9" points="276.4,560.4 276.4,574.9 288.9,574.9 288.9,578 260.8,578 260.8,574.9 273.2,574.9 273.2,560.4 
		260.8,560.4 260.8,557.3 288.9,557.3 288.9,560.4 	"/>
	<polygon class="st9" points="275.4,595.8 275.4,610.2 287.9,610.2 287.9,613.4 259.8,613.4 259.8,610.2 272.2,610.2 272.2,595.8 
		259.8,595.8 259.8,592.7 287.9,592.7 287.9,595.8 	"/>
	<polygon class="st9" points="276.4,630.8 276.4,645.2 288.9,645.2 288.9,648.4 260.8,648.4 260.8,645.2 273.2,645.2 273.2,630.8 
		260.8,630.8 260.8,627.7 288.9,627.7 288.9,630.8 	"/>
	<polygon class="st9" points="276.6,665.8 276.6,680.2 289.1,680.2 289.1,683.4 261,683.4 261,680.2 273.5,680.2 273.5,665.8 
		261,665.8 261,662.7 289.1,662.7 289.1,665.8 	"/>
	<text transform="matrix(1 0 0 1 522.6707 604.7895)" class="st10 st11 st12">cool</text>
	<text transform="matrix(1 0 0 1 614.4449 604.7893)" class="st10 st11 st12">heat</text>
	<line class="st2" x1="160.8" y1="610.1" x2="201.1" y2="597"/>
	<line class="st2" x1="879.9" y1="211.6" x2="920.2" y2="224.7"/>
	<path class="st3" d="M1122.1,517.6c0.1,0.3,0.1,0.7,0.1,1v79.6c0,4-3.2,7.2-7.2,7.2h-101.1c-3.9,0-7.2-3.2-7.2-7.2
		c0-2,0.8-3.8,2.1-5.1c1.3-1.3,3.1-2.1,5.1-2.1h93.9v-72.4c0-0.3,0-0.7,0.1-1h-5.5l12.4-40.3l12.9,40.3H1122.1z"/>
</g>
<g id="text">
	<text transform="matrix(1 0 0 1 409.5524 404.2429)" class="st11 st12">mixed</text>
	<text transform="matrix(1 0 0 1 63.9408 638.6784)" class="st11 st12">outside</text>
	<text transform="matrix(1 0 0 1 63.9409 187.8319)" class="st11 st12">exhaust</text>
	<text transform="matrix(1 0 0 1 1090.3792 411.2707)" class="st11 st12">zone</text>
	<text transform="matrix(1 0 0 1 1018.6803 639.278)" class="st11 st12">discharge</text>
	<text transform="matrix(1 0 0 1 976.6805 189.2571)" class="st11 st12">return</text>
</g>
</svg>
