<?xml version="1.0" encoding="utf-8"?>
<!-- Generator: Adobe Illustrator 22.0.1, SVG Export Plug-In . SVG Version: 6.00 Build 0)  -->
<svg version="1.1" xmlns="http://www.w3.org/2000/svg" xmlns:xlink="http://www.w3.org/1999/xlink" x="0px" y="0px"
	 viewBox="0 0 792 612" style="enable-background:new 0 0 792 612;" xml:space="preserve">
<style type="text/css">
	.st0{fill:#3CA7DE;}
	.st1{fill:#2C7289;}
	.st2{fill:#AADEE9;}
	.st3{fill:#CCCCCB;}
	.st4{fill:#BFBFBF;}
	.st5{fill:none;stroke:#000000;stroke-width:0.5;stroke-linecap:round;stroke-linejoin:round;}
	.st6{fill:#010101;}
	.st7{font-family:'PTSans-Regular';}
	.st8{font-size:14px;}
	.st9{font-size:11px;}
</style>
<g id="Layer_1">
	<g id="XMLID_1_">
		<g>
			<path class="st0" d="M788.1,375.5c0,2.3-1,4.4-2.7,5.9c-1.7,1.5-4,2.4-6.5,2.4h-24.6h-25.8c-0.4,0.1-0.8,0.1-1.2,0.1h-30.4h-41.8
				h-48.9v7.9l-5.5-1.6l-29.3-8.5l-22.5-6.6l22.3-6.5l6.4-1.9l23.2-6.7l5.5-1.6v8.8h48.6h42.4h57.1h24.6
				C783.9,367.2,788.1,371,788.1,375.5z"/>
			<path class="st0" d="M787.1,254.3l-32.9,9.6l-24.1,7V263h-33h-41.4h-45.8c-0.4,0-0.8,0-1.2-0.1h-8.1h-30.2h-11.8
				c-2.5,0-4.8-0.9-6.5-2.4c-1.7-1.5-2.7-3.6-2.7-5.8c0-4.5,4.1-8.2,9.2-8.2h12.1h29.8H655h42.8h32.3v-8.7l24.1,7l4.4,1.3
				L787.1,254.3z"/>
			<path class="st1" d="M418,366.2c4.7,0,8.6,3.9,8.6,8.6c0,2.4-1,4.5-2.5,6c-1.5,1.6-3.7,2.5-6,2.5h-12.7h-22.1H247.5v0.3h-50.9
				v8.3l-33.4-10.9l-20.2-6.6l20.7-6.7l6.1-2l26.8-8.7v9.2h50.9h135.7H406H418z"/>
			<path class="st1" d="M429.1,254.2l-23.9,7.8l-22.1,7.2l-12.9,4.2v-9.1H247.5V264h-3.4h-81.8H152c-2.5,0-4.8-1.1-6.4-2.8
				c-1.6-1.7-2.7-4-2.7-6.6c0-5.2,4.1-9.4,9.1-9.4h10.5h85h122.8v-10.1l12.9,4.2l16.5,5.4l5.6,1.8L429.1,254.2z"/>
			<path class="st2" d="M609.9,263h45.8c3.5,7.9,11.5,13.5,20.7,13.5s17.2-5.5,20.7-13.5h33v7.9l24.1-7v103.4h-57.1
				c-3.2-8.6-11.5-14.7-21.2-14.7c-9.7,0-18,6.1-21.2,14.7h-48.6v-8.8l-5.5,1.6v-97.2h8.1C609.1,263,609.5,263,609.9,263z"/>
			<polygon class="st2" points="383.2,269.2 383.2,366.2 247.5,366.2 247.5,264.3 370.3,264.3 370.3,273.4 			"/>
			<path class="st2" d="M754.2,383.8V486c0,6.6-5.4,12-12,12H20.9c-6.6,0-12-5.4-12-12V89.3c0-6.6,5.4-12,12-12h721.3
				c6.6,0,12,5.4,12,12v155.4l-24.1-7v8.7h-32.3c-3.1-8.9-11.5-15.2-21.4-15.2s-18.3,6.4-21.4,15.2h-54.4v-84c0-6.6-5.4-12-12-12
				H395.2c-6.6,0-12,5.4-12,12v76.9l-12.9-4.2v10.1H247.5v-82.7c0-6.6-5.2-12-11.5-12H49.9c-6.3,0-11.5,5.4-11.5,12v300.2
				c0,6.6,5.2,12,11.5,12H236c6.4,0,11.5-5.4,11.5-12v-78.9v-0.3h135.7v79.2c0,6.6,5.4,12,12,12h193.5c6.6,0,12-5.4,12-12v-72.4
				l5.5,1.6v-7.9h48.9c3.4,8.2,11.5,13.9,20.9,13.9c9.4,0,17.5-5.7,20.9-13.9h30.4c0.4,0,0.8,0,1.2-0.1H754.2z"/>
			<path class="st3" d="M405.3,262c3.2,8.7,11.5,14.9,21.3,14.9c12.5,0,22.7-10.1,22.7-22.6c0-12.5-10.1-22.7-22.7-22.7
				c-9.8,0-18.1,6.2-21.3,14.9l-5.6-1.8l-16.5-5.4v-76.9c0-6.6,5.4-12,12-12h193.5c6.6,0,12,5.4,12,12v84h-29.8
				c-3.2-8.7-11.5-14.8-21.3-14.8c-12.5,0-22.7,10.1-22.7,22.7c0,12.5,10.1,22.6,22.7,22.6c9.4,0,17.5-5.8,20.9-14h30.2v97.2
				l-23.2,6.7l-6.4,1.9c-2.9-9.1-11.5-15.7-21.6-15.7c-12.5,0-22.7,10.1-22.7,22.6s10.1,22.6,22.7,22.6c10.4,0,19.1-7,21.8-16.5
				l29.3,8.5v72.4c0,6.6-5.4,12-12,12H395.2c-6.6,0-12-5.4-12-12v-79.2h22.1c3.2,8.7,11.5,14.9,21.3,14.9
				c12.5,0,22.7-10.1,22.7-22.6s-10.1-22.6-22.7-22.6c-9.2,0-17.1,5.5-20.6,13.3h-22.8v-97.1L405.3,262z"/>
			<path class="st3" d="M247.5,264.3v102h-50.9v-9.2l-26.8,8.7l-6.1,2c-2.6-9.7-11.4-16.8-21.9-16.8c-12.5,0-22.7,10.1-22.7,22.6
				c0,12.5,10.1,22.6,22.7,22.6c9.9,0,18.3-6.3,21.4-15.2l33.4,10.9v-8.3h50.9v78.9c0,6.6-5.2,12-11.5,12H49.9
				c-6.3,0-11.5-5.4-11.5-12V162.4c0-6.6,5.2-12,11.5-12H236c6.4,0,11.5,5.4,11.5,12v82.7h-85c-3.5-8-11.5-13.6-20.8-13.6
				c-12.5,0-22.7,10.1-22.7,22.7c0,12.5,10.1,22.6,22.7,22.6c9,0,16.8-5.3,20.5-12.9h81.8c0.6,0.2,1.3,0.3,1.9,0.3H247.5z"/>
			<path class="st4" d="M571.4,381.7c-2.7,9.5-11.4,16.5-21.8,16.5c-12.5,0-22.7-10.1-22.7-22.6s10.1-22.6,22.7-22.6
				c10.1,0,18.6,6.6,21.6,15.7l-22.3,6.5L571.4,381.7z"/>
			<path class="st4" d="M655.1,383.9h41.8c-3.4,8.2-11.5,13.9-20.9,13.9C666.6,397.9,658.5,392.1,655.1,383.9z"/>
			<path class="st4" d="M697.2,367.2h-42.4c3.2-8.6,11.5-14.7,21.2-14.7C685.7,352.5,694,358.6,697.2,367.2z"/>
			<path class="st4" d="M655.7,263h41.4c-3.5,7.9-11.5,13.5-20.7,13.5S659.2,270.9,655.7,263z"/>
			<path class="st4" d="M697.8,246.4H655c3.1-8.9,11.5-15.2,21.4-15.2S694.8,237.5,697.8,246.4z"/>
			<path class="st4" d="M552.2,260.5c1.7,1.5,4,2.4,6.5,2.4h11.8c-3.4,8.2-11.5,14-20.9,14c-12.5,0-22.7-10.1-22.7-22.6
				c0-12.5,10.1-22.7,22.7-22.7c9.8,0,18.1,6.2,21.3,14.8h-12.1c-5.1,0-9.2,3.7-9.2,8.2C549.5,256.9,550.5,259,552.2,260.5z"/>
			<path class="st4" d="M405.3,246.4c3.2-8.7,11.5-14.9,21.3-14.9c12.5,0,22.7,10.1,22.7,22.7c0,12.5-10.1,22.6-22.7,22.6
				c-9.8,0-18.1-6.2-21.3-14.9l23.9-7.8L405.3,246.4z"/>
			<path class="st4" d="M426.6,352.9c12.5,0,22.7,10.1,22.7,22.6s-10.1,22.6-22.7,22.6c-9.8,0-18.1-6.2-21.3-14.9H418
				c2.3,0,4.5-1,6-2.5c1.6-1.6,2.5-3.7,2.5-6c0-4.7-3.9-8.6-8.6-8.6H406C409.5,358.4,417.4,352.9,426.6,352.9z"/>
			<path class="st4" d="M163.7,367.8l-20.7,6.7l20.2,6.6c-3.1,8.8-11.5,15.2-21.4,15.2c-12.5,0-22.7-10.1-22.7-22.6
				c0-12.5,10.1-22.6,22.7-22.6C152.3,351,161.1,358.1,163.7,367.8z"/>
			<path class="st4" d="M145.6,261.2c1.6,1.7,3.9,2.8,6.4,2.8h10.2c-3.6,7.6-11.4,12.9-20.5,12.9c-12.5,0-22.7-10.1-22.7-22.6
				c0-12.5,10.1-22.7,22.7-22.7c9.3,0,17.3,5.6,20.8,13.6H152c-5,0-9.1,4.2-9.1,9.4C142.9,257.1,144,259.5,145.6,261.2z"/>
		</g>
		<g>
			<path class="st5" d="M247.5,383.7v78.9c0,6.6-5.2,12-11.5,12H49.9c-6.3,0-11.5-5.4-11.5-12V162.4c0-6.6,5.2-12,11.5-12H236
				c6.4,0,11.5,5.4,11.5,12v82.7"/>
			<line class="st5" x1="247.5" y1="264.3" x2="247.5" y2="366.2"/>
			<path class="st5" d="M383.2,239.3v-76.9c0-6.6,5.4-12,12-12h193.5c6.6,0,12,5.4,12,12v84"/>
			<line class="st5" x1="383.2" y1="366.2" x2="383.2" y2="269.2"/>
			<path class="st5" d="M600.7,390.2v72.4c0,6.6-5.4,12-12,12H395.2c-6.6,0-12-5.4-12-12v-79.2"/>
			<line class="st5" x1="600.7" y1="262.9" x2="600.7" y2="360.1"/>
			<path class="st5" d="M162.2,264c-3.6,7.6-11.4,12.9-20.5,12.9c-12.5,0-22.7-10.1-22.7-22.6c0-12.5,10.1-22.7,22.7-22.7
				c9.3,0,17.3,5.6,20.8,13.6"/>
			<path class="st5" d="M406,366.2c3.5-7.8,11.4-13.3,20.6-13.3c12.5,0,22.7,10.1,22.7,22.6s-10.1,22.6-22.7,22.6
				c-9.8,0-18.1-6.2-21.3-14.9"/>
			<path class="st5" d="M571.4,381.7c-2.7,9.5-11.4,16.5-21.8,16.5c-12.5,0-22.7-10.1-22.7-22.6s10.1-22.6,22.7-22.6
				c10.1,0,18.6,6.6,21.6,15.7"/>
			<path class="st5" d="M405.3,246.4c3.2-8.7,11.5-14.9,21.3-14.9c12.5,0,22.7,10.1,22.7,22.7c0,12.5-10.1,22.6-22.7,22.6
				c-9.8,0-18.1-6.2-21.3-14.9"/>
			<path class="st5" d="M570.5,262.9c-3.4,8.2-11.5,14-20.9,14c-12.5,0-22.7-10.1-22.7-22.6c0-12.5,10.1-22.7,22.7-22.7
				c9.8,0,18.1,6.2,21.3,14.8"/>
			<path class="st5" d="M696.9,383.9c-3.4,8.2-11.5,13.9-20.9,13.9c-9.4,0-17.5-5.7-20.9-13.9"/>
			<path class="st5" d="M654.8,367.2c3.2-8.6,11.5-14.7,21.2-14.7c9.7,0,18,6.1,21.2,14.7"/>
			<path class="st5" d="M697.2,263c-3.5,7.9-11.5,13.5-20.7,13.5s-17.2-5.5-20.7-13.5"/>
			<path class="st5" d="M655,246.4c3.1-8.9,11.5-15.2,21.4-15.2s18.3,6.4,21.4,15.2"/>
			<path class="st5" d="M163.1,381.1c-3.1,8.8-11.5,15.2-21.4,15.2c-12.5,0-22.7-10.1-22.7-22.6c0-12.5,10.1-22.6,22.7-22.6
				c10.5,0,19.3,7.1,21.9,16.8"/>
			<path class="st5" d="M247.5,264.3H246c-0.7,0-1.3-0.1-1.9-0.3"/>
			<line class="st5" x1="754.2" y1="367.2" x2="754.2" y2="263.8"/>
			<path class="st5" d="M754.2,244.7V89.3c0-6.6-5.4-12-12-12H20.9c-6.6,0-12,5.4-12,12V486c0,6.6,5.4,12,12,12h721.3
				c6.6,0,12-5.4,12-12V383.8"/>
			<path class="st5" d="M754.2,244.7l4.4,1.3l28.5,8.3l-32.9,9.6l-24.1,7V263h-33h-41.4h-45.8c-0.4,0-0.8,0-1.2-0.1h-8.1h-30.2
				h-11.8c-2.5,0-4.8-0.9-6.5-2.4c-1.7-1.5-2.7-3.6-2.7-5.8c0-4.5,4.1-8.2,9.2-8.2h12.1h29.8H655h42.8h32.3v-8.7L754.2,244.7z"/>
			<path class="st5" d="M754.2,367.2h24.6c5.1,0,9.3,3.7,9.3,8.3c0,2.3-1,4.4-2.7,5.9c-1.7,1.5-4,2.4-6.5,2.4h-24.6h-25.8
				c-0.4,0.1-0.8,0.1-1.2,0.1h-30.4h-41.8h-48.9v7.9l-5.5-1.6l-29.3-8.5l-22.5-6.6l22.3-6.5l6.4-1.9l23.2-6.7l5.5-1.6v8.8h48.6h42.4
				H754.2z"/>
			<path class="st5" d="M406,366.2H418c4.7,0,8.6,3.9,8.6,8.6c0,2.4-1,4.5-2.5,6c-1.5,1.6-3.7,2.5-6,2.5h-12.7h-22.1H247.5v0.3
				h-50.9v8.3l-33.4-10.9l-20.2-6.6l20.7-6.7l6.1-2l26.8-8.7v9.2h50.9h135.7H406z"/>
			<path class="st5" d="M405.3,246.4l23.9,7.8l-23.9,7.8l-22.1,7.2l-12.9,4.2v-9.1H247.5V264h-3.4h-81.8H152c-2.5,0-4.8-1.1-6.4-2.8
				c-1.6-1.7-2.7-4-2.7-6.6c0-5.2,4.1-9.4,9.1-9.4h10.5h85h122.8v-10.1l12.9,4.2l16.5,5.4L405.3,246.4z"/>
		</g>
	</g>
</g>
<g id="text">
	<text transform="matrix(1 0 0 1 105.6319 136.4073)" class="st6 st7 st8">coolingTower</text>
	<text transform="matrix(1 0 0 1 311.8821 102.6202)" class="st6 st7 st8">chilled water plant</text>
	<text transform="matrix(1 0 0 1 476.7556 136.4075)" class="st6 st7 st8">chiller</text>
	<text transform="matrix(1 0 0 1 403.9289 205.4265)" class="st6 st7 st9">condenser </text>
	<text transform="matrix(1 0 0 1 403.9289 218.6265)" class="st6 st7 st9">water entering </text>
	<text transform="matrix(1 0 0 1 118.5547 327.046)" class="st6 st7 st9">condenser </text>
	<text transform="matrix(1 0 0 1 118.5547 340.246)" class="st6 st7 st9">water entering </text>
	<text transform="matrix(1 0 0 1 523.0927 327.0464)" class="st6 st7 st9">chilled water </text>
	<text transform="matrix(1 0 0 1 523.0927 340.2464)" class="st6 st7 st9">entering </text>
	<text transform="matrix(1 0 0 1 526.9233 205.9664)" class="st6 st7 st9">chilled water </text>
	<text transform="matrix(1 0 0 1 526.9233 219.1664)" class="st6 st7 st9">leaving</text>
	<text transform="matrix(1 0 0 1 653.3196 205.9664)" class="st6 st7 st9">chilled water </text>
	<text transform="matrix(1 0 0 1 653.3196 219.1664)" class="st6 st7 st9">leaving</text>
	<text transform="matrix(1 0 0 1 653.3194 327.0463)" class="st6 st7 st9">chilled water </text>
	<text transform="matrix(1 0 0 1 653.3194 340.2463)" class="st6 st7 st9">entering </text>
	<text transform="matrix(1 0 0 1 118.5548 205.2076)" class="st6 st7 st9">condenser</text>
	<text transform="matrix(1 0 0 1 118.5548 218.4075)" class="st6 st7 st9">water leaving </text>
	<text transform="matrix(1 0 0 1 406.1703 327.0465)" class="st6 st7 st9">condenser</text>
	<text transform="matrix(1 0 0 1 406.1703 340.2465)" class="st6 st7 st9">water leaving </text>
</g>
</svg>
